<?xml version="1.0" encoding="UTF-8" standalone="no"?><!DOCTYPE svg PUBLIC "-//W3C//DTD SVG 1.1//EN" "http://www.w3.org/Graphics/SVG/1.1/DTD/svg11.dtd"><svg width="100%" height="100%" viewBox="0 0 384 428" version="1.1" xmlns="http://www.w3.org/2000/svg" xmlns:xlink="http://www.w3.org/1999/xlink" xml:space="preserve" xmlns:serif="http://www.serif.com/" style="fill-rule:evenodd;clip-rule:evenodd;stroke-linecap:round;stroke-linejoin:round;stroke-miterlimit:1.5;"><g id="margherita-slice"><path id="shadow" d="M106.157,81.26c-1.121,-1.385 -1.866,-2.52 -1.986,-2.761l-2.089,-4.178c-7.52,-15.04 -4.174,-25.079 -3.482,-27.156c5.789,-17.367 40.698,-12.312 53.617,-13.926c32.913,-4.114 43.685,15.017 70.328,8.356c34.192,-8.548 59.286,7.46 66.15,9.748c0.88,0.293 10.928,7.205 11.837,7.66c20.471,10.235 22.897,6.923 42.475,16.712c17.018,8.509 27.044,-3.707 34.12,10.445c4.124,8.249 4.263,8.001 4.874,10.445c6.473,25.894 -7.57,42.689 -9.748,45.957c-3.468,5.202 -17.485,9.664 -24.808,12.154c-1.696,4.837 -4.374,12.814 -7.346,15.362c-4.95,4.243 -4.954,4.063 -5.348,4.456c-3.414,3.414 -18.341,8.607 -21.391,14.706l-4.456,8.913c-1.602,3.203 -5.599,23.858 -28.783,9.784c-2.492,1.218 -5.385,2.532 -10.227,4.952c-1.401,0.7 -11.133,6.263 -19.497,10.445c-3.393,1.697 -5.976,2.766 -8.031,3.459c-3.044,3.482 -6.293,7.202 -6.548,7.457c-4.647,4.647 -3.6,5.383 -5.793,7.576c-3.143,3.143 -3.958,16.175 -4.902,21.837c-2.817,16.901 3.448,28.193 -5.793,37.434c-12.293,12.293 -24.871,6.324 -24.956,6.239c-1.138,-1.138 -7.576,-7.131 -2.674,-26.739c3.291,-13.165 -8.748,-6.404 -12.478,-2.674c-0.757,0.757 -4.234,4.234 -11.587,6.685c-5.988,1.996 -11.5,-0.682 -14.442,-2.627c-7.897,4.016 -20.568,10.583 -33.704,19.341c-7.052,4.701 -14.128,5.76 -22.701,10.793c-3.343,8.054 -8.46,17.586 -11.086,20.212c-6.133,6.133 -7.972,23.917 -8.704,26.112c-0.514,1.541 -6.963,20.89 -17.408,10.445c-4.249,-4.249 -4.998,-3.594 -10.445,-0.87c-11.333,5.667 -8.114,49.894 -13.056,54.835c-1.692,1.692 -7.232,9.305 -15.667,0.87c-13.187,-13.187 4.54,-69.067 -1.741,-87.91c-10.467,-31.4 -3.317,-44.719 12.186,-75.725c1.192,-2.384 1.446,-2.021 2.611,-4.352c2.948,-5.895 1.417,-6.316 4.352,-12.186c27.45,-54.9 21.473,-79.79 30.464,-88.781c3.004,-3.004 1.35,-3.961 4.352,-6.963c24.86,-24.86 13.881,-45.582 33.51,-66.542Z" style="fill:current-color;"/><path id="base-color" d="M96.582,52.774c-1.121,-1.385 -1.866,-2.52 -1.986,-2.761l-2.089,-4.178c-7.52,-15.04 -4.174,-25.079 -3.482,-27.156c5.789,-17.367 40.698,-12.312 53.617,-13.926c32.913,-4.114 43.685,15.017 70.328,8.356c34.192,-8.548 59.286,7.46 66.15,9.748c0.88,0.293 10.928,7.205 11.837,7.66c20.471,10.235 22.897,6.923 42.475,16.712c17.018,8.509 27.044,-3.707 34.12,10.445c4.124,8.249 4.263,8.001 4.874,10.445c6.473,25.894 -7.57,42.689 -9.748,45.957c-3.468,5.202 -17.485,9.664 -24.808,12.154c-1.696,4.837 -4.374,12.814 -7.346,15.362c-4.95,4.243 -4.954,4.063 -5.348,4.456c-3.414,3.414 -18.341,8.607 -21.391,14.706l-4.456,8.913c-1.602,3.203 -5.599,23.858 -28.783,9.784c-2.492,1.218 -5.385,2.532 -10.227,4.952c-1.401,0.7 -11.133,6.263 -19.497,10.445c-3.393,1.697 -5.976,2.766 -8.031,3.459c-3.044,3.482 -6.293,7.202 -6.548,7.457c-4.647,4.647 -3.6,5.383 -5.793,7.576c-3.143,3.143 -3.958,16.175 -4.902,21.837c-2.817,16.901 3.448,28.193 -5.793,37.434c-12.293,12.293 -24.871,6.324 -24.956,6.239c-1.138,-1.138 -7.576,-7.131 -2.674,-26.739c3.291,-13.165 -8.748,-6.404 -12.478,-2.674c-0.757,0.757 -4.234,4.234 -11.587,6.685c-5.988,1.996 -11.5,-0.682 -14.442,-2.627c-7.897,4.016 -20.568,10.583 -33.704,19.341c-7.052,4.701 -14.128,5.76 -22.701,10.793c-3.343,8.054 -8.46,17.586 -11.086,20.212c-6.133,6.133 -7.972,23.917 -8.704,26.112c-0.514,1.541 -6.963,20.89 -17.408,10.445c-4.249,-4.249 -4.998,-3.594 -10.445,-0.87c-11.333,5.667 -8.114,49.894 -13.056,54.835c-1.692,1.692 -7.232,9.305 -15.667,0.87c-13.187,-13.187 4.54,-69.067 -1.741,-87.91c-10.467,-31.4 -3.317,-44.719 12.186,-75.725c1.192,-2.384 1.446,-2.021 2.611,-4.352c2.948,-5.895 1.417,-6.316 4.352,-12.186c27.45,-54.9 21.473,-79.79 30.464,-88.781c3.004,-3.004 1.35,-3.961 4.352,-6.963c24.86,-24.86 13.881,-45.582 33.51,-66.542Z" style="fill:current-color;"/><g id="base-details"><path id="shadow1" serif:id="shadow" d="M95.93,13.075c28.797,1.809 75.966,-1.472 83.421,2.256c29.747,14.874 53.407,-11.39 110.652,17.233c0.042,0.021 6.393,6.371 17.233,11.791c30.045,15.023 45.097,2.399 57.14,19.954c4.353,6.345 7.344,8.881 3.497,25.59c-4.065,17.657 -29.273,31.677 -33.21,29.708m-263.242,162.379c5.476,-1.825 6.293,0.482 41.721,-17.233c24.489,-12.244 25.953,-18.315 28.504,-18.952m87.505,-51.293c11.337,-11.337 40.894,-19.242 44.527,-20.453" style="fill:none;stroke:#ebb58f;stroke-width:17px;"/><path id="spot" d="M125.096,26.639c-10.605,3.535 -1.471,11.553 7.215,8.658c0.855,-0.285 8.016,-6.482 -7.215,-8.658Zm85.134,7.936c-2.913,-5.826 -12.109,1.599 -6.493,7.215c0.791,0.791 6.451,2.929 10.101,-0.721c2.951,-2.951 -2.104,-11.002 -3.607,-6.493Zm25.973,25.973c-7.919,-7.919 -9.591,2.419 -5.772,4.329c7.755,3.878 10.729,-2.677 5.772,-4.329Zm13.708,-15.872c-0.43,-0.215 0.43,-1.228 0,-1.443c-5.921,-2.961 -2.707,11.365 2.886,5.772c3.382,-3.382 -2.531,-6.848 -4.329,-5.05c-0.228,0.228 1.732,0.866 1.443,0.721Zm-68.54,7.215c-2.235,-0.745 -8.706,1.779 -0.721,5.772c6.384,3.192 6.641,-10.174 -0.721,-6.493c-0.289,0.144 1.749,0.824 1.443,0.721Zm115.411,26.02c-3.727,-3.727 -4.514,4.669 -3.463,5.195c6.755,3.378 10.537,-2.161 7.503,-5.195c-4.13,-4.13 -4.185,-0.289 -4.04,0Zm-46.752,-5.772c-4.075,-2.037 -5.43,8.776 1.732,5.195c3.734,-1.867 0.575,-7.694 -4.04,-4.617c-0.396,0.264 2.734,-0.364 2.309,-0.577Z" style="fill:#d39276;stroke:#d39276;stroke-width:3.96px;"/></g><g id="line"><path id="outline" d="M337.871,126.229c7.322,-2.49 21.339,-6.952 24.808,-12.154c2.179,-3.268 16.222,-20.063 9.748,-45.957c-0.611,-2.444 -0.75,-2.196 -4.874,-10.445c-7.076,-14.152 -17.101,-1.936 -34.12,-10.445c-19.578,-9.789 -22.005,-6.476 -42.475,-16.712c-0.91,-0.455 -10.958,-7.366 -11.837,-7.66c-6.864,-2.288 -31.958,-18.297 -66.15,-9.748c-26.643,6.661 -37.416,-12.47 -70.328,-8.356c-12.918,1.615 -47.827,-3.441 -53.617,13.926c-0.693,2.078 -4.039,12.116 3.482,27.156l2.089,4.178c0.121,0.241 0.865,1.376 1.986,2.761m241.289,73.455c7.322,-2.49 21.339,-6.952 24.808,-12.154c2.179,-3.268 16.222,-20.063 9.748,-45.957c-0.611,-2.444 -0.75,-2.196 -4.874,-10.445c-7.076,-14.152 -17.101,-1.936 -34.12,-10.445c-19.578,-9.789 -22.005,-6.476 -42.475,-16.712c-0.91,-0.455 -10.958,-7.366 -11.837,-7.66c-6.864,-2.288 -31.958,-18.297 -66.15,-9.748c-26.643,6.661 -37.416,-12.47 -70.328,-8.356c-12.918,1.615 -47.827,-3.441 -53.617,13.926c-0.693,2.078 -4.039,12.116 3.482,27.156l2.089,4.178c0.121,0.241 0.865,1.376 1.986,2.761m136.21,145.533c2.055,-0.693 4.637,-1.763 8.031,-3.459c8.364,-4.182 18.096,-9.744 19.497,-10.445c4.841,-2.421 7.734,-3.735 10.227,-4.952m-183.333,104.178c8.573,-5.033 15.649,-6.092 22.701,-10.793c13.136,-8.757 25.807,-15.325 33.704,-19.341m-47.037,-200.72c-19.629,20.96 -8.65,41.682 -33.51,66.542c-3.002,3.002 -1.348,3.959 -4.352,6.963c-8.991,8.991 -3.014,33.881 -30.464,88.781c-2.935,5.87 -1.404,6.29 -4.352,12.186c-1.165,2.331 -1.419,1.968 -2.611,4.352c-15.503,31.006 -22.652,44.324 -12.186,75.725c6.281,18.843 -11.446,74.723 1.741,87.91c8.435,8.435 13.975,0.822 15.667,-0.87c4.942,-4.942 1.723,-49.168 13.056,-54.835c5.447,-2.723 6.196,-3.378 10.445,0.87c10.445,10.445 16.894,-8.904 17.408,-10.445c0.732,-2.195 2.571,-19.979 8.704,-26.112c2.626,-2.626 7.743,-12.158 11.086,-20.212m9.368,-230.855c-19.629,20.96 -8.65,41.682 -33.51,66.542c-3.002,3.002 -1.348,3.959 -4.352,6.963c-8.991,8.991 -3.014,33.881 -30.464,88.781c-2.935,5.87 -1.404,6.29 -4.352,12.186c-1.165,2.331 -1.419,1.968 -2.611,4.352c-15.503,31.006 -22.652,44.324 -12.186,75.725c6.281,18.843 -11.446,74.723 1.741,87.91c8.435,8.435 13.975,0.822 15.667,-0.87c4.942,-4.942 1.723,-49.168 13.056,-54.835c5.447,-2.723 6.196,-3.378 10.445,0.87c10.445,10.445 16.894,-8.904 17.408,-10.445c0.732,-2.195 2.571,-19.979 8.704,-26.112c2.626,-2.626 7.743,-12.158 11.086,-20.212m183.333,-104.178c23.184,14.074 27.182,-6.581 28.783,-9.784l4.456,-8.913c3.05,-6.099 17.977,-11.293 21.391,-14.706c0.394,-0.394 0.398,-0.214 5.348,-4.456c2.972,-2.548 5.65,-10.525 7.346,-15.362m-194.252,127.266c2.942,1.945 8.453,4.623 14.442,2.627c7.353,-2.451 10.83,-5.928 11.587,-6.685c3.73,-3.73 15.769,-10.492 12.478,2.674c-4.902,19.608 1.536,25.6 2.674,26.739c0.085,0.085 12.663,6.054 24.956,-6.239c9.241,-9.241 2.976,-20.533 5.793,-37.434c0.944,-5.662 1.759,-18.694 4.902,-21.837c2.193,-2.193 1.146,-2.929 5.793,-7.576c0.255,-0.255 3.505,-3.975 6.548,-7.457" style="fill:none;stroke:#9e3232;stroke-width:8.33px;"/><g id="sauce"><path id="color" d="M311.972,108.591c4.186,-0.208 7.886,-0.183 11.104,0.793c9.332,2.831 21.422,23.289 -2.72,35.36c-21.065,10.533 -20.179,19.959 -21.76,23.12c-19.469,38.937 -33.567,-6.944 -46.24,-2.72c-22.014,7.338 -6.9,20.5 -23.12,36.72c-4.051,4.051 -7.104,8.16 -9.408,12.268c-0.171,0.268 -0.335,0.568 -0.491,0.896c-14.996,28.056 4.18,55.835 -21.382,64.356c-1.071,0.357 -2.076,0.64 -3.02,0.854c-5.896,0.66 -10.088,-1.341 -10.137,-1.389c-0.299,-0.299 -0.964,-0.933 -1.692,-2.06c-4.1,-7.196 0.759,-21.774 1.249,-23.245c2.251,-6.754 -1.332,-19.068 -10.88,-9.52c-20.166,20.166 -34.802,1.999 -44.88,-1.36c-13.053,-4.351 -13.465,-3.467 -25.84,2.72c-18.933,9.467 -12.902,29.884 -21.76,47.6c-0.487,0.973 -4.533,9.067 -8.16,10.88c-9.313,4.657 -4.547,27.667 -10.88,34c-8.164,8.164 -16.203,-10.997 -23.12,-4.08c-14.157,14.157 -9.534,38.137 -12.24,48.96c-0.326,1.306 -6.12,24.48 -16.32,4.08c-12.812,-25.624 13.591,-59.858 -0,-87.04c-1.859,-3.718 -10.2,-20.4 5.44,-51.68c37.134,-74.268 36.117,-98.226 39.44,-111.52c3.944,-15.774 17.846,-14.098 31.28,-54.4c5.891,-17.673 8.769,-29.894 20.4,-29.92c9.088,1.115 7.228,2.662 29.92,4.08c9.742,0.609 21.982,10.991 27.2,13.6c12.869,6.434 45.777,6.344 47.6,6.8c40.388,10.097 37.918,15.559 58.48,25.84c17.217,8.608 31.179,6.54 41.936,6.007Z" style="fill:#9e3232;"/><path id="hlight" d="M16.313,388.391c-0.019,-0.018 -0.032,-0.03 -0.039,-0.036c-0.013,-0.011 0.044,0.022 0.039,0.036Zm0,0c0.319,0.296 2.311,2.141 4.001,2.422c1.15,0.191 1.474,-0.529 1.568,-0.571c0.735,-0.331 1.434,-0.914 2.239,-0.911c0.017,0 2.246,0.932 2.249,0.941c0.307,0.746 0.915,1.434 0.913,2.24c-0.006,2.544 -3.125,3.758 -3.517,3.911c-6.06,2.36 -11.544,-4.127 -12.084,-5.006c-0.252,-0.41 -2.828,-3.346 -1.351,-20.924c0.87,-10.349 2.338,-16.233 2.591,-16.549c0.234,-0.292 0.407,-0.675 0.741,-0.843c0.015,-0.008 1.128,-0.085 1.135,-0.079c0.283,0.244 0.676,0.405 0.844,0.739c0.399,0.798 0.122,0.835 -0.058,1.706c-1.433,6.968 -1.842,29.294 0.72,32.935c0.003,-0.003 0.005,-0.006 0.008,-0.009c0.001,-0.001 0.001,-0.001 0.001,-0.002Zm244.982,-225.926c-5.778,-2.501 -6.02,-3.355 -9.693,-2.117c-1.807,0.609 -1.769,0.71 -1.932,0.736c-0.366,0.058 -0.756,0.214 -1.107,0.097c-0.015,-0.005 -0.871,-0.763 -0.871,-0.772c-0.025,-0.369 -0.186,-0.757 -0.069,-1.108c0.119,-0.356 0.448,-0.609 0.725,-0.861c0.001,-0.001 1.05,-0.622 1.986,-1.091c5.103,-2.562 6.899,-1.015 12.77,0.564c1.02,0.274 1.516,0.313 2.421,1.686c0.792,1.201 5.954,3.358 6.502,3.587c1.107,0.463 1.511,1.675 1.573,1.86c0.005,0.016 -0.154,2.401 -0.161,2.407c-0.609,0.529 -1.068,1.325 -1.833,1.58c-1.622,0.541 -1.692,0.278 -3.157,-0.605c-5.124,-3.086 -6.531,-4.857 -7.154,-5.963Zm-39.794,-78.428l0.056,-0.213c1.998,0.293 12.708,1.741 17.217,5.586c1.639,1.398 1.69,1.33 3.348,2.201c1.335,0.701 2.309,1.427 3.562,2.527c0.935,0.821 0.935,2.059 0.935,2.254c-0,0.017 -0.925,2.249 -0.933,2.252c-0.742,0.304 -1.426,0.91 -2.229,0.91c-1.963,-0 -1.792,-0.539 -3.183,-1.926c-1.543,-1.537 -2.539,-1.509 -4.945,-4.226c-3.529,-3.986 -14.661,-6.648 -14.833,-6.833c-0.255,-0.274 -0.612,-0.496 -0.73,-0.851c-0.006,-0.019 0.067,-1.029 0.074,-1.119c0.011,-0.157 0.115,-0.058 1.662,-0.562Zm0.18,-0.059c0.047,-0.016 0.096,-0.032 0.145,-0.049l-0.108,-0.044l-0.037,0.092Zm-19.61,188.417c0.615,1.121 0.614,1.189 0.25,2.416c-0.473,1.595 -0.693,1.534 -2.211,2.206c-13.184,5.834 -19.638,-5.807 -16.465,-17.831c0.372,-1.41 0.798,-2.457 0.837,-2.562c0.413,-1.09 0.701,-0.86 1.862,-0.943c0.009,-0.001 0.862,0.733 0.87,0.748c0.369,0.739 0.148,0.775 -0.04,1.578c-1.703,7.265 0.573,15.28 5.779,14.952c2.086,-0.131 4.157,-1.43 4.823,-1.844c1.033,-0.643 2.226,-0.289 2.412,-0.234c1.219,0.361 1.271,0.4 1.884,1.515Zm-114.21,-16.319c-1.213,-0.404 -1.261,-0.45 -1.833,-1.594c-0.361,-0.721 -0.245,-1.609 -0.179,-2.413c0,-0.001 0.884,-2.204 1.583,-3.821c4.539,-10.507 7.653,-11.355 19.988,-12.657c1.151,-0.122 1.085,0.224 1.702,1.205c0.005,0.007 -0.231,1.195 -0.239,1.207c-0.339,0.475 -0.466,0.305 -4.879,1.45c-7.749,2.01 -8.95,3.32 -11.217,11.278c-0.398,1.397 -0.911,3.344 -0.913,3.347c-1.5,1.671 -1.455,1.723 -1.629,1.81c-1.128,0.564 -1.191,0.586 -2.384,0.189Zm-4.659,29.31c-1.252,0.246 -1.316,0.232 -2.378,-0.472c-1.298,-0.86 -1.297,-0.997 -1.371,-2.552c-0.29,-6.095 1.179,-6.484 2.907,-11.001c0.533,-1.392 0.464,-1.939 1.926,-1.641c1.347,0.274 1.228,0.653 1.137,2.022c-0.333,5.059 -1.418,5.177 0.049,9.287c0.548,1.536 0.67,1.675 -0.247,3.022c-0.717,1.053 -0.771,1.09 -2.023,1.336Zm2.871,-203.937c-1.278,-0.003 -1.337,-0.03 -2.241,-0.933c-1.173,-1.172 -1.034,-1.335 -0.865,-2.984c0.749,-7.318 5.347,-13.758 13.028,-17.041c0.046,-0.02 0.565,-0.241 0.573,-0.242c0.374,-0.024 0.767,-0.184 1.123,-0.065c0.016,0.005 0.855,0.731 0.855,0.74c0.029,0.377 0.2,0.773 0.08,1.132c-0.23,0.69 -0.365,0.604 -0.98,0.987c-9.985,6.216 -8.354,15.163 -8.392,15.261c-0.803,2.077 -0.8,2.085 -0.937,2.221c-0.907,0.899 -0.967,0.927 -2.244,0.924Z" style="fill:#f2f4e7;"/><path id="line1" serif:id="line" d="M106.836,52.264c-11.631,0.026 -14.509,12.247 -20.4,29.92c-13.434,40.302 -27.336,38.626 -31.28,54.4c-3.323,13.294 -2.306,37.252 -39.44,111.52c-15.64,31.28 -7.299,47.962 -5.44,51.68c13.591,27.182 -12.812,61.416 0,87.04c10.2,20.4 15.994,-2.774 16.32,-4.08c2.706,-10.823 -1.917,-34.803 12.24,-48.96c6.917,-6.917 14.956,12.244 23.12,4.08c6.333,-6.333 1.567,-29.343 10.88,-34c3.627,-1.813 7.673,-9.907 8.16,-10.88c8.858,-17.716 2.827,-38.133 21.76,-47.6c12.375,-6.187 12.787,-7.071 25.84,-2.72c10.078,3.359 24.714,21.526 44.88,1.36c9.548,-9.548 13.131,2.766 10.88,9.52c-0.739,2.216 -11.39,34.17 13.6,25.84c29.575,-9.858 -0.74,-45.5 31.28,-77.52c16.22,-16.22 1.106,-29.382 23.12,-36.72c12.673,-4.224 26.771,41.657 46.24,2.72c1.581,-3.161 0.695,-12.587 21.76,-23.12c24.142,-12.071 12.052,-32.529 2.72,-35.36c-11.488,-3.486 -29.124,5.158 -53.04,-6.8c-20.562,-10.281 -18.092,-15.743 -58.48,-25.84c-1.823,-0.456 -34.731,-0.366 -47.6,-6.8c-5.218,-2.609 -17.458,-12.991 -27.2,-13.6c-22.692,-1.418 -20.831,-2.965 -29.92,-4.08Zm240.461,-1.696c-2.197,1.756 -4.156,3.809 -5.667,6.076c-9.851,14.777 -26.144,12.069 -31.195,37.323c-1.24,6.201 -0.686,10.201 1.537,14.624" style="fill:none;stroke:#9e3232;stroke-width:3.96px;"/></g><g id="top"><path id="blob" d="M30.735,220.69c21.37,0.222 13.327,14.23 14.285,23.809c0.362,3.624 7.061,3.002 9.523,25.169c1.812,16.306 -15.395,29.86 -19.727,42.856c-1.06,3.18 -2.539,17.505 -6.802,21.768c-8.163,8.163 -10.693,-4.487 -10.884,-5.442c-2.062,-10.308 4.021,-19.788 -7.483,-31.291c-10.882,-10.882 -2.233,-29.842 -2.041,-30.611c6.219,-24.875 7.247,-40.963 23.128,-46.257Zm145.231,-58.278c16.224,-3.31 33.386,-3.778 42.025,1.682c10.432,6.594 -6.992,11.02 -9.031,13.059c-0.402,0.402 -11.564,11.564 -2.041,6.802c11.869,-5.935 15.719,7.446 3.401,13.605c-13.62,6.81 -13.037,7.747 -14.285,8.163c-8.834,2.945 -7.383,5.927 -16.326,8.163c-13.15,3.287 1.76,-15.916 -4.762,-14.285c-8.719,2.18 -16.355,22.02 -29.251,20.407c-7.087,-0.886 -6.209,-14.934 -6.122,-16.326c0.197,-3.15 8.8,-18.724 10.204,-20.407c14.31,-17.163 23.198,-19.867 26.187,-20.864Z" style="fill:#f2f4e7;"/><path id="cherry" d="M88.751,166.179c-0.536,4.685 0.558,9.638 6.608,11.655c4.126,1.375 7.207,1.034 9.888,-0.006c3.896,16.835 -20.255,43.378 -37.098,26.536c-5.248,-5.248 -3.731,-6.102 -4.762,-8.163c-7.98,-15.961 13.306,-29.232 25.364,-30.021Zm3.424,-125.831c7.268,-2.423 15.351,-9.024 22.312,4.898c3.251,6.503 2.169,9.266 -0.544,14.693c-10.676,21.351 -39.802,12.742 -34.285,-3.809c0.351,-1.053 3.809,-11.428 5.986,-12.517l6.53,-3.265Zm196.226,53.754c0.907,-0.101 8.7,-0.967 10.884,3.401c1.238,2.476 2.193,1.665 3.401,4.081c6.19,12.381 -0.281,21.009 -1.36,22.448c-6.972,9.296 -27.635,16.156 -34.693,2.041c-5.891,-11.783 7.104,-34.416 21.768,-31.972Z" style="fill:current-color;"/><path id="leaf" d="M39.721,128.236c1.496,-2.753 4.148,-5.647 4.564,-6.1c15.269,-16.657 17.204,-14.486 18.285,-16.108c2.589,-3.883 17.727,-9.516 27.588,-11.639c0.751,6.763 4.895,13.494 11.267,15.618c10.527,3.509 17.364,2.502 22.229,8.417c-2.996,2.655 -7.384,7.043 -7.971,7.63c-3.034,3.034 -3.583,2.277 -4.789,3.483c-6.718,6.718 -23.009,12.421 -37.006,11.755c-2.917,-0.139 -22.156,-7.813 -22.203,-7.836c-2.532,-1.266 -12.329,-4.51 -12.19,-4.789c0.071,-0.143 0.146,-0.286 0.224,-0.43Zm117.392,-66.105c21.79,-5.448 35.833,13.846 37.414,17.006c1.864,3.727 2.365,4.6 6.122,2.721c2.721,-1.36 15.006,-3.817 16.326,-4.081c14.972,-2.994 17.026,3.751 27.21,8.843c4.22,2.11 10.638,12.281 10.204,12.244c-17.345,-1.445 -27.795,10.462 -48.978,3.401c-2.866,-0.955 -5.198,-5.057 -6.802,1.36c-8.12,32.48 -18.307,30.552 -30.611,42.856c-0.888,0.888 -1.36,1.36 -14.965,4.762c-1.404,0.351 -1.272,0.197 -2.721,0.68c-2.131,0.71 -2.122,0.381 -4.081,1.36c-4.291,2.145 -4.558,1.7 -4.762,1.36c-1.224,-2.04 0.096,-23.32 3.401,-29.931c1.31,-2.619 9.977,-19.954 24.489,-27.21c7.257,-3.629 17.457,-0.455 10.204,-4.081c-14.627,-7.314 -28.243,-10.811 -25.169,-29.251l2.721,-2.041Z" style="fill:current-color;"/><path id="line2" serif:id="line" d="M106.36,178.324c3.288,16.149 -17.659,40.785 -35.083,30.302c-3.198,-1.924 -7.499,-6.224 -8.476,-9.326c-0.303,-0.963 -0.308,-1.801 -0.603,-2.421c-0.296,-0.624 -6.294,-10.955 5.012,-21.691c4.757,-4.518 12.801,-9.038 20.843,-9.763c0.006,-1.231 0.134,-3.903 0.91,-5.93c0.699,-1.826 1.958,-3.386 2.253,-3.766c0.057,-0.074 0.523,-0.673 1.1,-0.385c0.341,0.17 0.307,0.706 0.363,1.083c0.008,0.054 -0.552,2.218 -0.602,2.411c-0.819,3.161 -1.545,3.701 -2.636,7.393c-0.004,0.015 -0.009,0.026 -0.02,0.039c0.006,0.566 -0.178,1.512 -0.012,3.144c0.326,3.207 1.894,7.178 8.998,8.263c3.902,0.596 6.339,-0.813 6.82,-0.822c0.041,-0.001 0.084,0.001 0.129,0.007c0.452,-0.249 1.317,-0.755 2.486,-1.58c3.773,-2.663 9.231,-7.489 18.771,-3.644c0.084,0.034 0.198,0.029 0.25,0.103c0.187,0.265 0.25,0.605 0.437,0.87c-0.316,0.072 -0.553,0.362 -0.868,0.435c-0.228,0.052 -4.963,-1.727 -10.125,0.414c-3.423,1.42 -6.474,3.683 -9.948,4.866Zm-18.395,-11.26c-1.847,0.247 -6.555,1.166 -12.197,4.473c-1.037,0.608 -17.94,10.156 -11.247,23.88c1.097,2.25 0.356,2.591 1.662,4.525c0.945,1.399 3.529,4.419 6.358,6.152c0.409,0.25 8.645,6.216 19.868,-2.332c6.703,-5.105 13.328,-15.184 12.062,-24.649c-1.794,0.531 -5.166,1.128 -9.828,-0.624c-6.836,-2.568 -6.891,-8.886 -6.679,-11.426Zm-3.281,9.905c-0.13,0.307 -0.055,0.676 -0.185,0.983c-0.016,0.039 -2.864,2.931 -3.875,3.649c-1.367,0.972 -2.966,1.591 -3.63,1.86c-0.523,0.212 -0.516,-0.08 -1.149,-0.179c0.142,-0.361 0.062,-0.784 0.204,-1.145c0.009,-0.023 1.337,-1.58 2.46,-2.474c1.093,-0.869 3.151,-1.86 4.653,-2.587c0.177,-0.086 0.337,-0.238 0.533,-0.252c0.333,-0.024 0.657,0.168 0.99,0.144Zm5.006,8.396c-0.217,0.252 -0.311,0.595 -0.528,0.847c-0.101,0.118 -2.121,0.821 -3.423,1.95c-1.531,1.327 -2.664,1.967 -3.203,2.284c-0.432,0.255 -0.467,0.006 -1.162,0.014c0.051,-0.384 -0.042,-0.778 0.009,-1.162c0.017,-0.125 0.127,-0.219 0.19,-0.328c1.761,-3.059 2.909,-3.816 6.709,-4.071c0.18,-0.012 0.369,-0.086 0.541,-0.03c0.316,0.105 0.551,0.391 0.867,0.495Zm33.762,-64.871c-5.648,5.188 -7.736,8.02 -10.351,9.304c-0.857,0.421 -0.874,0.402 -1.563,1.064c-6.621,6.371 -22.603,12.318 -37.368,11.629c-0.503,-0.023 -1.341,0.417 -17.44,-5.969c-5.741,-2.277 -5.71,-2.349 -6.661,-2.754c-3.847,-1.64 -10.493,-3.873 -11.123,-4.481c-0.273,-0.263 -0.336,-0.679 -0.174,-0.993c0.077,-0.15 0.161,-0.296 0.238,-0.446l0.012,0.007c0.053,-0.127 0.145,-0.217 0.291,-0.308c0.69,-1.258 2.163,-3.817 9.517,-11.392c10.112,-10.417 12.324,-9.771 12.902,-10.585c0.02,-0.029 1.329,-3.162 14.093,-8.016c5.905,-2.246 10.948,-3.578 13.129,-4.09c-0.016,-0.5 -0.014,-1 0.007,-1.496c-0.083,-0.628 -0.139,-1.316 -0.132,-1.986c0.004,-0.452 0.036,-0.894 0.109,-1.301c0.052,-0.291 0.123,-0.575 0.207,-0.85c0.237,-0.782 0.578,-1.461 0.895,-1.99c0.235,-0.393 0.47,-0.726 0.67,-0.981c0.001,-0.002 0.003,-0.003 0.004,-0.005c0.061,-0.081 0.098,-0.194 0.189,-0.239c0.294,-0.547 0.44,-0.689 1.084,-0.368l0.004,0.002c0.056,0.028 0.106,0.055 0.152,0.082c0.514,0.299 0.438,0.541 0.225,0.998c-0.034,0.12 -0.07,0.257 -0.101,0.413c-0,0.002 -0.003,0.015 -0.004,0.02c-0.062,0.326 -0.165,0.925 -0.328,2.036c-0.256,1.751 -0.495,2.584 -0.698,3.551c-0.045,0.233 -0.085,0.449 -0.12,0.65c0.017,0.685 0.071,1.377 0.162,2.07c0.016,0.056 0.03,0.116 0.039,0.179c0,0.001 0.011,0.144 0.046,0.403c0.979,6.08 4.771,12.106 10.772,14.154c1.114,0.38 2.189,0.713 3.226,1.011c0.202,0.052 0.408,0.105 0.62,0.159c8.231,2.088 14.001,2.02 18.627,7.407c0.293,0.341 0.422,0.654 0.446,0.938c0.266,0.172 0.535,0.378 0.689,0.575c0.126,0.162 0.544,0.701 0.753,2.451c0.011,0.094 0.018,0.174 0.02,0.243c0.011,0.025 0.016,0.05 0.011,0.077c-0.005,0.028 -0.01,0.055 -0.015,0.08c-0.023,0.28 -0.144,0.391 -0.291,0.845c-0.149,-0.064 -0.305,-0.109 -0.461,-0.153c-0.162,-0.033 -0.324,-0.066 -0.461,-0.153c-0.054,-0.024 -0.947,-0.819 -1.028,-0.892c-0.386,-0.344 -0.636,-0.557 -0.821,-0.9Zm-82.293,8.032c2.731,1.037 8.547,2.961 10.674,3.936c0.93,0.426 19.578,7.536 22.121,7.644c12.082,0.516 28.45,-4.244 35.963,-11.572c1.47,-1.434 1.955,-0.794 4.262,-2.978c1.138,-1.077 3.566,-3.641 7.488,-7.222c-4.062,-3.962 -9.114,-3.781 -17.256,-6.057c-1.22,-0.303 -2.447,-0.648 -3.663,-1.057c-6.418,-2.158 -10.609,-8.663 -11.585,-15.413c-12.663,2.932 -23.819,7.974 -25.76,10.675c-1.186,1.651 -1.957,0.698 -7.025,4.903c-1.807,1.499 -4.983,4.325 -10.139,9.765c-2.086,2.2 -3.37,3.64 -4.476,5.185c23.432,-11.204 38.251,-10.582 50.445,-11.337c2.805,-0.174 3.565,-0.333 3.594,-0.321c0.343,0.142 0.63,0.401 0.973,0.543c-0.283,0.242 -0.471,0.582 -0.754,0.825c-0.015,0.013 -1.782,0.327 -3.67,0.544c-7.683,0.883 -21.36,1.331 -43.904,9.213c-1.139,0.398 -4.896,1.762 -7.29,2.724Zm50.655,-88.9c0.053,-0.005 0.09,0.076 0.142,0.071c0.217,-0.022 4.09,-1.685 4.443,-1.837c5.416,-2.326 13.171,-5.426 19.49,7.827c2.756,5.779 2.184,8.997 -1.227,15.583c-7.879,15.213 -26.077,15.806 -33.837,7.094c-2.934,-3.294 -3.919,-7.82 -2.364,-12.401c0.489,-1.441 2.348,-6.571 4.116,-9.876c0.564,-1.055 1.574,-2.815 2.631,-3.319l6.605,-3.142Zm0.671,1.343l0.051,0.101c-5.901,3.104 -6.174,2.789 -7.086,4.081c-1.836,2.601 -4.816,11.18 -5.116,13.266c-1.633,11.344 14.71,17.069 25.755,9.041c0.895,-0.651 5.02,-3.45 8.342,-11.422c0.997,-2.391 1.975,-5.395 -1.822,-12.093c-5.977,-10.543 -12.552,-5.516 -20.124,-2.975Zm3.222,8.219l-0.315,-1.584c2.06,-1.169 2.655,-1.557 5.887,-0.059l0.352,0.165c0.311,0.147 -0.038,0.248 -0.209,1.364c-2.568,0.238 -2.568,0.23 -2.879,0.277c-1.072,0.163 -2.598,-0.129 -2.836,-0.163Zm8.075,7.134c-0.315,0.073 -0.605,0.236 -0.92,0.308c-0.116,0.027 -1.306,-0.536 -2.9,-0.073c-0.94,0.273 -2.995,1.245 -5.502,-0.623c-0.014,-0.01 -0.355,-0.272 -0.361,-0.286c-0.154,-0.348 -0.208,-0.735 -0.361,-1.083c0.368,-0.093 0.712,-0.269 1.081,-0.363c0.209,-0.053 0.79,0.368 2.728,0.069c1.749,-0.269 3.518,-0.588 5.745,0.995c0.06,0.043 0.148,0.064 0.18,0.131c0.137,0.295 0.174,0.629 0.311,0.924Zm-73.522,163.676c6.693,0.083 15.83,0.758 16.268,10.874c0.192,4.449 -1.11,10.611 -0.603,13.652c0.429,2.574 7.232,3.65 9.664,25.028c1.92,16.881 -15.357,30.594 -19.55,43.374c-1.178,3.589 -2.295,17.685 -7.26,22.537c-7.786,7.609 -13.379,-0.715 -13.526,-11.378c-0.116,-8.444 2.582,-16.19 -6.312,-25.306c-1.209,-1.239 -5.136,-5.007 -5.929,-12.851c-0.893,-8.822 2.697,-17.439 3.429,-19.305l0.003,-0.008c4.356,-17.358 6.085,-27.322 10.271,-35.034c4.206,-7.749 9.608,-10.224 13.54,-11.581l-0.001,-0.002l0.223,-0.074c-0.071,0.024 -0.143,0.049 -0.216,0.074Zm0.694,1.385l0.036,0.072c-10.252,3.681 -14.049,10.923 -17.874,26.892c-1.062,4.435 -4.071,18.222 -4.416,19.143c-0.935,2.494 -7.773,19.275 1.791,28.988c5.724,5.814 8.037,10.909 7.848,19.585c-0.102,4.696 -1.143,11.806 1.756,17.128c1.442,2.648 3.288,3.66 6.772,0.304c4.2,-4.047 5.486,-17.872 6.838,-21.699c4.587,-12.986 21.357,-26.353 19.811,-41.83c-1.618,-16.191 -6.032,-20.453 -7.147,-21.703c-1.863,-2.089 -2.441,-2.346 -2.3,-6.347c0.328,-9.316 5.068,-19.656 -11.91,-20.493l-1.206,-0.039Zm144.318,-20.421c-3.18,0.632 -7.97,6.282 -8.968,7.403c-5.668,6.366 -11.986,14.06 -20.775,12.946c-8.704,-1.103 -7.226,-17.58 -7.108,-18.176c0.847,-4.309 9.152,-18.894 10.531,-20.536c6.018,-7.168 10.736,-11.187 11.762,-12.061c7.622,-6.493 12.307,-8.01 14.999,-8.892c0.05,-0.004 0.067,0.097 0.117,0.093c0.046,-0.003 30.027,-6.968 43.163,1.884c1.693,1.141 7.125,5.231 -1.298,10.181c-3.696,2.172 -7.112,3.203 -8.172,4.291c-0.331,0.34 -2.489,2.556 -3.953,4.429c-0.388,0.497 -0.665,0.887 -0.864,1.192c2.071,-0.82 5.216,-2.878 8.948,-2.311c7.181,1.09 8.004,11.422 -2.169,16.97c-2.681,1.462 -9.341,4.535 -13.808,7.911c-1.42,1.073 -2.523,0.879 -5.531,2.545c-3.684,2.041 -5.217,4.796 -12.426,6.48c-0.035,0.008 -6.124,1.803 -6.953,-2.922c-0.607,-3.461 2.331,-9.232 2.506,-11.425Zm0.913,-37.893l0.036,0.109c-2.535,0.879 -11.231,3.397 -25.292,20.383c-1.793,2.166 -6.152,10.722 -7.551,13.648c-2.91,6.086 -2.615,6.607 -2.641,7.986c-0.12,6.268 1.113,12.958 4.999,13.494c12.168,1.677 19.914,-18.858 29.262,-20.534c1.581,-0.284 3.654,0.457 2.95,3.871c-0.707,3.433 -3.845,9.964 -1.798,10.717c1.408,0.517 6.305,-0.695 9.395,-2.667c2.792,-1.782 3.992,-3.566 10.061,-5.605c0.785,-0.264 0.983,-1.49 13.52,-7.724c0.021,-0.01 6.265,-2.601 7.41,-7.653c0.984,-4.342 -2.679,-7.201 -8.848,-4.252c-1.32,0.631 -4.744,2.506 -5.594,0.465c-0.31,-0.746 -0.557,-2.051 5.243,-8.018c1.437,-1.479 1.469,-1.487 4.93,-3.052c4.356,-1.969 9.412,-4.415 7.696,-7.117c-1.568,-2.47 -11.652,-10.189 -43.777,-4.05Zm112.334,-69.671c9.963,-1.038 11.371,3.591 11.881,4.345c0.909,1.342 1.964,1.244 3.037,3.312c5.644,10.878 2.681,21.224 -4.766,27.461c-9.507,7.962 -26.538,11.141 -33.096,-1.469c-6.775,-13.026 7.524,-36.283 22.616,-33.801l0.344,0.059l-0.015,0.093Zm-0.23,1.381l-0.019,0.113c-0.094,-0.01 -7.753,-1.758 -15.156,7.241c-5.06,6.151 -9.101,16.879 -4.76,24.197c0.32,0.539 4.197,8.174 16.058,6.055c3.926,-0.701 14.1,-3.823 18.168,-12.706c3.774,-8.243 0.261,-15.7 -0.755,-17.787c-0.95,-1.952 -1.955,-1.382 -3.231,-3.886c-0.248,-0.488 -1.36,-3.404 -8.394,-3.318c-0.998,0.012 -1.488,0.104 -1.91,0.092Zm-6.428,18.977l0.291,0.001c-0.053,0.791 0.235,1.003 -0.365,1.239c-1.064,0.419 -1.694,-1.216 -2.005,-2.064c-1.189,-3.245 -0.852,-5.173 -0.84,-5.381c0.003,-0.001 0.006,-0.003 0.009,-0.004c-0.049,-0.457 0.013,-0.886 0.376,-1.193c0.482,-0.409 1.585,-0.494 1.934,0.729c0.986,3.46 0.298,3.941 0.654,6.622c0.017,-0.006 0.007,0.006 -0.047,0.046c-0.002,0.002 -0.004,0.003 -0.006,0.005Zm13.174,-4.34c-0.791,-0.263 -0.821,-0.202 -0.929,-0.309c-0.95,-0.939 -3.528,-3.091 -2.241,-5.884c0.065,-0.142 0.722,-1.565 1.591,-1.131c0.613,0.306 0.357,0.488 0.363,1.172c0.007,0.758 0.293,0.69 0.721,2.485c0.271,1.134 0.807,2.703 0.798,2.737c-0.082,0.315 -0.222,0.614 -0.304,0.929Zm-94.031,-7.917c-0.004,0.007 -0.01,0.015 -0.02,0.024c-1.006,0.902 -1.6,6.355 -4.828,14.936c-7.564,20.105 -16.578,20.432 -27.249,30.935c-1.154,1.136 -1.763,1.646 -15.577,5.05c-1.318,0.325 -1.339,0.232 -2.635,0.646c-2.13,0.681 -2.212,0.444 -3.753,1.197c-4.642,2.269 -6.623,3.033 -7.004,-1.132c-0.519,-5.68 0.92,-22.929 3.952,-28.928c8.692,-17.197 20.773,-26.697 28.036,-28.694c3.014,-0.829 5.997,-0.889 7.94,-0.974c-4.129,-2.255 -13.864,-6.073 -19.323,-10.398c-2.943,-2.332 -9.065,-7.766 -6.844,-20.102c0.019,-0.107 0.059,-0.207 0.123,-0.296c0.091,-0.126 0.108,-0.111 3.241,-2.452c-0.049,0.012 -0.097,0.024 -0.143,0.035l0.145,-0.037l0,0.001c3.727,-0.909 17.483,-4.127 31.838,9.341c3,2.814 5.649,6.233 6.558,8.006c1.124,2.193 1.575,3.175 2.468,3.071c1.279,-0.148 1.497,-0.822 5.081,-1.87c2.464,-0.721 13.467,-3.508 18.345,-3.92c11.376,-0.962 14.201,4.874 23.413,9.532c4.462,2.256 10.66,11.791 10.943,13.038c0.241,1.057 -0.71,1.72 -1.3,1.699c-2.561,-0.093 -6.058,-0.655 -15.148,1.732c-9.765,2.565 -19.574,6.563 -34.307,1.659c-1.654,-0.551 -3.176,-1.967 -3.943,-2.095c-0.005,-0.001 -0.009,-0.002 -0.013,-0.003Zm-43.703,-38.65l-2.253,1.705c-0.787,5.625 -1.07,12.934 7.187,18.884c6.842,4.93 19.219,9.139 20.491,10.95c0.106,0.15 0.89,1.597 -1.329,1.871c-2.91,0.359 -7.365,-0.185 -12.269,2.43c-13.548,7.224 -21.752,23.449 -23.138,26.225c-3.213,6.434 -4.27,24.672 -3.572,28.711c1.745,-0.486 3.659,-1.848 5.489,-2.309c1.379,-0.348 1.366,-0.383 2.728,-0.788c0.732,-0.218 0.775,-0.05 9.258,-2.352c6.86,-1.862 6.769,-2.186 7.49,-2.901c12.152,-12.044 21.791,-10.221 29.678,-41.243c0.542,-2.132 1.614,-7.364 6.328,-4.517c1.653,0.998 1.587,1.149 3.427,1.722c19.106,5.946 29.623,-4.22 45.27,-3.844c-2.035,-3.213 -5.914,-8.285 -8.398,-9.583c-7.278,-3.802 -8.884,-6.383 -13.543,-8.341c-5.385,-2.263 -11.039,-1.027 -19.229,0.751c-9.774,2.123 -9.625,2.647 -11.288,3.279c-4.37,1.661 -4.842,-2.28 -6.916,-5.338c-3.929,-5.793 -14.059,-16.045 -27.801,-16.142c-3.634,-0.026 -6.143,0.556 -7.599,0.893l-0.01,-0.063Zm43.685,38.577c-0,-0.011 -0.001,-0.022 -0.006,-0.035c0,0.014 0.003,0.025 0.006,0.035Zm-3.18,-10.02c-0.189,0.127 -0.418,0.285 -0.695,0.48c-5.668,3.984 -15.661,11.58 -22.449,18.959c-0.212,0.23 -8.39,9.42 -12.767,15.058c-5.893,7.588 -4.882,8.268 -6.225,9.783c-0.034,0.038 -0.162,0.197 -0.196,0.2c-0.379,0.03 -0.762,-0.03 -1.142,0c0.016,-0.379 -0.021,-0.758 -0.005,-1.137c0.002,-0.039 0.182,-0.091 0.465,-0.837c0.553,-1.458 1.836,-6.05 12.369,-18.722c3.869,-4.655 9.527,-11.592 25.659,-22.3c1.561,-1.036 2.854,-1.858 3.772,-2.428c-1.455,-1.313 -4.658,-4.249 -6.555,-5.669c-1.999,-1.497 -2.138,-1.485 -6.721,-4.739c-5.486,-3.896 -6.117,-4.297 -7.21,-4.857c-0.004,-0.001 -0.009,-0.003 -0.015,-0.008c-0.011,-0.006 -0.022,-0.011 -0.034,-0.017l0.002,-0.014c-0.078,-0.084 -0.27,-0.314 -0.74,-0.793c0.287,-0.257 0.539,-0.551 0.826,-0.807c0.347,-0.311 9.481,3.488 16.497,10.311c0.8,0.778 4.195,4.594 4.554,4.998c0.237,0.266 0.518,0.502 0.759,0.765c0.099,-0.058 0.151,-0.088 0.153,-0.088c0.204,0.046 0.4,0.124 0.598,0.193c8.546,-1.367 16.424,-0.571 23.327,0.89c2.354,0.498 4.653,1.382 6.636,2.22c0.036,-0.004 0.071,-0.006 0.108,-0.004c0.001,0 1.479,0.649 1.72,0.767c1.012,0.496 0.482,1.82 -0.59,1.493c-2.955,-0.902 -4.644,-1.743 -9.506,-2.323c-0.244,-0.029 -12.288,-1.388 -19.796,-1.347c-2.509,0.014 -2.58,0.086 -2.624,0.063c-0.055,-0.029 -0.115,-0.057 -0.176,-0.086Z" style="fill:#9e3232;"/></g></g></g></svg>