<?xml version="1.0" encoding="UTF-8" standalone="no"?><!DOCTYPE svg PUBLIC "-//W3C//DTD SVG 1.1//EN" "http://www.w3.org/Graphics/SVG/1.1/DTD/svg11.dtd"><svg width="100%" height="100%" viewBox="0 0 394 426" version="1.1" xmlns="http://www.w3.org/2000/svg" xmlns:xlink="http://www.w3.org/1999/xlink" xml:space="preserve" xmlns:serif="http://www.serif.com/" style="fill-rule:evenodd;clip-rule:evenodd;stroke-linecap:round;stroke-linejoin:round;stroke-miterlimit:1.5;"><g id="pepperoni-slice"><path id="shadow" d="M115.59,78.72c-1.121,-1.385 -1.866,-2.52 -1.986,-2.761l-2.089,-4.178c-7.52,-15.04 -4.174,-25.079 -3.482,-27.156c5.789,-17.367 40.698,-12.312 53.617,-13.926c32.913,-4.114 43.685,15.017 70.328,8.356c34.192,-8.548 59.286,7.46 66.15,9.748c0.88,0.293 10.928,7.205 11.837,7.66c20.471,10.235 22.897,6.923 42.475,16.712c17.018,8.509 27.044,-3.707 34.12,10.445c4.124,8.249 4.263,8.001 4.874,10.445c6.473,25.894 -7.57,42.689 -9.748,45.957c-3.468,5.202 -17.485,9.664 -24.808,12.154c-1.696,4.837 -4.374,12.814 -7.346,15.362c-4.95,4.243 -4.954,4.063 -5.348,4.456c-3.414,3.414 -18.341,8.607 -21.391,14.706l-4.456,8.913c-1.602,3.203 -5.599,23.858 -28.783,9.784c-2.492,1.218 -5.385,2.532 -10.227,4.952c-1.401,0.7 -11.133,6.263 -19.497,10.445c-3.393,1.697 -5.976,2.766 -8.031,3.459c-3.044,3.482 -6.293,7.202 -6.548,7.457c-4.647,4.647 -3.6,5.383 -5.793,7.576c-3.143,3.143 -3.958,16.175 -4.902,21.837c-2.817,16.901 3.448,28.193 -5.793,37.434c-12.293,12.293 -24.871,6.324 -24.956,6.239c-1.138,-1.138 -7.576,-7.131 -2.674,-26.739c3.291,-13.165 -8.748,-6.404 -12.478,-2.674c-0.757,0.757 -4.234,4.234 -11.587,6.685c-5.988,1.996 -11.5,-0.682 -14.442,-2.627c-7.897,4.016 -20.568,10.583 -33.704,19.341c-7.052,4.701 -14.128,5.76 -22.701,10.793c-3.343,8.054 -8.46,17.586 -11.086,20.212c-6.133,6.133 -7.972,23.917 -8.704,26.112c-0.514,1.541 -6.963,20.89 -17.408,10.445c-4.249,-4.249 -4.998,-3.594 -10.445,-0.87c-11.333,5.667 -8.114,49.894 -13.056,54.835c-1.692,1.692 -7.232,9.305 -15.667,0.87c-13.187,-13.187 4.54,-69.067 -1.741,-87.91c-10.467,-31.4 -3.317,-44.719 12.186,-75.725c1.192,-2.384 1.446,-2.021 2.611,-4.352c2.948,-5.895 1.417,-6.316 4.352,-12.186c27.45,-54.9 21.473,-79.79 30.464,-88.781c3.004,-3.004 1.35,-3.961 4.352,-6.963c24.86,-24.86 13.881,-45.582 33.51,-66.542Z" style="fill:current-color;"/><path id="base-color" d="M106.775,52.774c-1.121,-1.385 -1.866,-2.52 -1.986,-2.761l-2.089,-4.178c-7.52,-15.04 -4.174,-25.079 -3.482,-27.156c5.789,-17.367 40.698,-12.312 53.617,-13.926c32.913,-4.114 43.685,15.017 70.328,8.356c34.192,-8.548 59.286,7.46 66.15,9.748c0.88,0.293 10.928,7.205 11.837,7.66c20.471,10.235 22.897,6.923 42.475,16.712c17.018,8.509 27.044,-3.707 34.12,10.445c4.124,8.249 4.263,8.001 4.874,10.445c6.473,25.894 -7.57,42.689 -9.748,45.957c-3.468,5.202 -17.485,9.664 -24.808,12.154c-1.696,4.837 -4.374,12.814 -7.346,15.362c-4.95,4.243 -4.954,4.063 -5.348,4.456c-3.414,3.414 -18.341,8.607 -21.391,14.706l-4.456,8.913c-1.602,3.203 -5.599,23.858 -28.783,9.784c-2.492,1.218 -5.385,2.532 -10.227,4.952c-1.401,0.7 -11.133,6.263 -19.497,10.445c-3.393,1.697 -5.976,2.766 -8.031,3.459c-3.044,3.482 -6.293,7.202 -6.548,7.457c-4.647,4.647 -3.6,5.383 -5.793,7.576c-3.143,3.143 -3.958,16.175 -4.902,21.837c-2.817,16.901 3.448,28.193 -5.793,37.434c-12.293,12.293 -24.871,6.324 -24.956,6.239c-1.138,-1.138 -7.576,-7.131 -2.674,-26.739c3.291,-13.165 -8.748,-6.404 -12.478,-2.674c-0.757,0.757 -4.234,4.234 -11.587,6.685c-5.988,1.996 -11.5,-0.682 -14.442,-2.627c-7.897,4.016 -20.568,10.583 -33.704,19.341c-7.052,4.701 -14.128,5.76 -22.701,10.793c-3.343,8.054 -8.46,17.586 -11.086,20.212c-6.133,6.133 -7.972,23.917 -8.704,26.112c-0.514,1.541 -6.963,20.89 -17.408,10.445c-4.249,-4.249 -4.998,-3.594 -10.445,-0.87c-11.333,5.667 -8.114,49.894 -13.056,54.835c-1.692,1.692 -7.232,9.305 -15.667,0.87c-13.187,-13.187 4.54,-69.067 -1.741,-87.91c-10.467,-31.4 -3.317,-44.719 12.186,-75.725c1.192,-2.384 1.446,-2.021 2.611,-4.352c2.948,-5.895 1.417,-6.316 4.352,-12.186c27.45,-54.9 21.473,-79.79 30.464,-88.781c3.004,-3.004 1.35,-3.961 4.352,-6.963c24.86,-24.86 13.881,-45.582 33.51,-66.542Z" style="fill:current-color;"/><g id="color"><g id="base-details"><path id="shadow1" serif:id="shadow" d="M102.263,13.565c66.835,-14.135 74.895,6.063 114.868,7.601c39.817,1.531 40.275,-1.314 78.227,11.337c17.006,5.669 25.428,14.09 27.209,15.872c1.014,1.014 1.249,0.416 17.006,5.669c12.221,4.074 13.37,-1.251 24.942,4.535c0.002,0.001 27,9.489 7.936,47.617c-3.914,7.828 -15.981,12.7 -23.137,16.84m-65.294,48.916c-10.581,5.291 -21.163,10.581 -31.744,15.872c-2.267,1.134 -8.388,7.254 -9.07,7.936m-83.896,48.75c-10.654,5.327 -11.072,3.836 -21.541,9.07c-40.814,20.407 -43.468,23.061 -46.483,26.076" style="fill:none;stroke:#ebb58f;stroke-width:13.29px;"/><path id="spot" d="M121.909,37.074c-5.763,-1.64 -0.964,7.922 3.939,3.737c4.11,-3.508 -1.95,-5.435 -3.939,-3.737Zm29.327,-15.32c-2.152,-1.837 -7.421,3.745 -3.939,5.231c3.207,1.369 10.128,-1.443 7.441,-3.737c-1.47,-1.255 -1.214,-2.471 -3.502,-1.495Zm50.338,22.046c-4.471,-3.816 -12.598,5.134 -3.064,7.847c8.109,2.308 10.369,-5.768 3.064,-7.847Zm26.263,-8.968c-0.538,-0.23 -1.156,-2.002 -2.626,-0.747c-5.15,4.397 4.177,7.644 8.317,4.11c4.089,-3.49 -5.69,-6.657 -5.69,-3.363Zm36.331,16.441c-8.915,1.522 -1.835,10.137 6.128,5.605c0.839,-0.478 1.898,-2.49 0.875,-3.363c-2.749,-2.347 -3.179,-1.589 -7.003,-2.242Zm24.074,14.199c-5.676,-1.615 -2.391,9.888 2.626,5.605c4.773,-4.075 -2.626,-7.5 -2.626,-5.605Zm20.573,-9.342c-3.437,-5.867 -9.821,-3.105 -8.317,0.747c2.259,5.786 7.866,0.599 8.317,-0.747Zm27.139,28.025c-2.165,-5.545 -7.365,3.498 -3.064,4.11c6.237,0.887 7.309,-6.526 3.064,-4.11Z" style="fill:#d39276;stroke:#d39276;stroke-width:4.17px;"/></g><g id="top"><path id="color1" serif:id="color" d="M322.165,108.591c4.186,-0.208 7.886,-0.183 11.104,0.793c9.332,2.831 21.422,23.289 -2.72,35.36c-21.065,10.533 -20.179,19.959 -21.76,23.12c-19.469,38.937 -33.567,-6.944 -46.24,-2.72c-22.014,7.338 -6.9,20.5 -23.12,36.72c-32.02,32.02 -1.705,67.662 -31.28,77.52c-24.99,8.33 -14.339,-23.624 -13.6,-25.84c2.251,-6.754 -1.332,-19.068 -10.88,-9.52c-20.166,20.166 -34.802,1.999 -44.88,-1.36c-13.053,-4.351 -13.465,-3.467 -25.84,2.72c-18.933,9.467 -12.902,29.884 -21.76,47.6c-0.487,0.973 -4.533,9.067 -8.16,10.88c-9.313,4.657 -4.547,27.667 -10.88,34c-8.164,8.164 -16.203,-10.997 -23.12,-4.08c-14.157,14.157 -9.534,38.137 -12.24,48.96c-0.326,1.306 -6.12,24.48 -16.32,4.08c-12.812,-25.624 13.591,-59.858 0,-87.04c-1.859,-3.718 -10.2,-20.4 5.44,-51.68c37.134,-74.268 36.117,-98.226 39.44,-111.52c3.944,-15.774 17.846,-14.098 31.28,-54.4c5.891,-17.673 8.769,-29.894 20.4,-29.92c9.088,1.115 7.228,2.662 29.92,4.08c9.742,0.609 21.982,10.991 27.2,13.6c12.869,6.434 45.777,6.344 47.6,6.8c40.388,10.097 37.918,15.559 58.48,25.84c17.217,8.608 31.179,6.54 41.936,6.007Z" style="fill:#efd080;"/><path id="shade" d="M21.175,395.187c7.309,-1.462 6.325,-5.773 9.982,-13.088c5.473,-10.946 8.777,-45.566 18.182,-50.269c0.036,-0.018 -2.852,6.774 -2.496,7.13m30.304,-34.582c0.744,0.744 7.017,-2.869 9.626,-10.695c5.665,-16.996 1.014,-19.853 9.982,-37.791c2.705,-5.41 13.384,-15.102 14.261,-15.687c3.39,-2.26 11.365,-9.64 23.173,-5.704c8.022,2.674 15.281,9.933 16.4,11.052c0.433,0.433 0.46,0.408 6.774,3.565c2.599,1.3 2.562,1.211 5.348,2.139c1.201,0.4 1.062,0.531 2.139,1.07c0.213,0.106 0.5,-0.106 0.713,0m39.217,24.6c1.327,-0.265 2.089,0.763 12.122,-9.269c0.041,-0.041 6.305,-10.433 3.922,-19.965c-0.299,-1.196 0.301,-17.384 0.357,-18.895c0.132,-3.564 4.673,-22.491 15.33,-31.017c2.816,-2.253 6.885,-7.732 7.843,-6.774m47.773,-11.052c-0.639,0.639 8.969,0.901 13.548,-12.835c0.807,-2.421 1.199,-6.904 4.635,-10.339c1.633,-1.633 1.881,-5.575 20.678,-14.974c1.496,-0.748 9.186,-7.321 9.982,-8.913c3.01,-6.019 2.338,-10.496 2.139,-10.695m-162.747,-48.192c9.381,9.381 32.891,7.216 36.097,4.011m33.686,87.837c0.08,-0.08 -0.188,-0.07 0.446,-1.337c0.388,-0.775 9.893,-3.387 11.141,-3.565c5.028,-0.718 10.231,4.438 6.685,0.891" style="fill:none;stroke:#e7b874;stroke-width:12.05px;stroke-linecap:butt;"/></g></g><g id="line"><g id="base"><path id="outline" d="M348.064,126.229c7.322,-2.49 21.339,-6.952 24.808,-12.154c2.179,-3.268 16.222,-20.063 9.748,-45.957c-0.611,-2.444 -0.75,-2.196 -4.874,-10.445c-7.076,-14.152 -17.101,-1.936 -34.12,-10.445c-19.578,-9.789 -22.005,-6.476 -42.475,-16.712c-0.91,-0.455 -10.958,-7.366 -11.837,-7.66c-6.864,-2.288 -31.958,-18.297 -66.15,-9.748c-26.643,6.661 -37.416,-12.47 -70.328,-8.356c-12.918,1.615 -47.827,-3.441 -53.617,13.926c-0.693,2.078 -4.039,12.116 3.482,27.156l2.089,4.178c0.121,0.241 0.865,1.376 1.986,2.761m241.289,73.455c7.322,-2.49 21.339,-6.952 24.808,-12.154c2.179,-3.268 16.222,-20.063 9.748,-45.957c-0.611,-2.444 -0.75,-2.196 -4.874,-10.445c-7.076,-14.152 -17.101,-1.936 -34.12,-10.445c-19.578,-9.789 -22.005,-6.476 -42.475,-16.712c-0.91,-0.455 -10.958,-7.366 -11.837,-7.66c-6.864,-2.288 -31.958,-18.297 -66.15,-9.748c-26.643,6.661 -37.416,-12.47 -70.328,-8.356c-12.918,1.615 -47.827,-3.441 -53.617,13.926c-0.693,2.078 -4.039,12.116 3.482,27.156l2.089,4.178c0.121,0.241 0.865,1.376 1.986,2.761m136.21,145.533c2.055,-0.693 4.637,-1.763 8.031,-3.459c8.364,-4.182 18.096,-9.744 19.497,-10.445c4.841,-2.421 7.734,-3.735 10.227,-4.952m-183.333,104.178c8.573,-5.033 15.649,-6.092 22.701,-10.793c13.136,-8.757 25.807,-15.325 33.704,-19.341m-47.037,-200.72c-19.629,20.96 -8.65,41.682 -33.51,66.542c-3.002,3.002 -1.348,3.959 -4.352,6.963c-8.991,8.991 -3.014,33.881 -30.464,88.781c-2.935,5.87 -1.404,6.29 -4.352,12.186c-1.165,2.331 -1.419,1.968 -2.611,4.352c-15.503,31.006 -22.652,44.324 -12.186,75.725c6.281,18.843 -11.446,74.723 1.741,87.91c8.435,8.435 13.975,0.822 15.667,-0.87c4.942,-4.942 1.723,-49.168 13.056,-54.835c5.447,-2.723 6.196,-3.378 10.445,0.87c10.445,10.445 16.894,-8.904 17.408,-10.445c0.732,-2.195 2.571,-19.979 8.704,-26.112c2.626,-2.626 7.743,-12.158 11.086,-20.212m9.368,-230.855c-19.629,20.96 -8.65,41.682 -33.51,66.542c-3.002,3.002 -1.348,3.959 -4.352,6.963c-8.991,8.991 -3.014,33.881 -30.464,88.781c-2.935,5.87 -1.404,6.29 -4.352,12.186c-1.165,2.331 -1.419,1.968 -2.611,4.352c-15.503,31.006 -22.652,44.324 -12.186,75.725c6.281,18.843 -11.446,74.723 1.741,87.91c8.435,8.435 13.975,0.822 15.667,-0.87c4.942,-4.942 1.723,-49.168 13.056,-54.835c5.447,-2.723 6.196,-3.378 10.445,0.87c10.445,10.445 16.894,-8.904 17.408,-10.445c0.732,-2.195 2.571,-19.979 8.704,-26.112c2.626,-2.626 7.743,-12.158 11.086,-20.212m183.333,-104.178c23.184,14.074 27.182,-6.581 28.783,-9.784l4.456,-8.913c3.05,-6.099 17.977,-11.293 21.391,-14.706c0.394,-0.394 0.398,-0.214 5.348,-4.456c2.972,-2.548 5.65,-10.525 7.346,-15.362m-194.252,127.266c2.942,1.945 8.453,4.623 14.442,2.627c7.353,-2.451 10.83,-5.928 11.587,-6.685c3.73,-3.73 15.769,-10.492 12.478,2.674c-4.902,19.608 1.536,25.6 2.674,26.739c0.085,0.085 12.663,6.054 24.956,-6.239c9.241,-9.241 2.976,-20.533 5.793,-37.434c0.944,-5.662 1.759,-18.694 4.902,-21.837c2.193,-2.193 1.146,-2.929 5.793,-7.576c0.255,-0.255 3.505,-3.975 6.548,-7.457" style="fill:none;stroke:#9e3232;stroke-width:8.33px;"/><path id="fine-line" d="M117.029,52.264c-11.631,0.026 -14.509,12.247 -20.4,29.92c-13.434,40.302 -27.336,38.626 -31.28,54.4c-3.323,13.294 -2.306,37.252 -39.44,111.52c-15.64,31.28 -7.299,47.962 -5.44,51.68c13.591,27.182 -12.812,61.416 0,87.04c10.2,20.4 15.994,-2.774 16.32,-4.08c2.706,-10.823 -1.917,-34.803 12.24,-48.96c6.917,-6.917 14.956,12.244 23.12,4.08c6.333,-6.333 1.567,-29.343 10.88,-34c3.627,-1.813 7.673,-9.907 8.16,-10.88c8.858,-17.716 2.827,-38.133 21.76,-47.6c12.375,-6.187 12.787,-7.071 25.84,-2.72c10.078,3.359 24.714,21.526 44.88,1.36c9.548,-9.548 13.131,2.766 10.88,9.52c-0.739,2.216 -11.39,34.17 13.6,25.84c29.575,-9.858 -0.74,-45.5 31.28,-77.52c16.22,-16.22 1.106,-29.382 23.12,-36.72c12.673,-4.224 26.771,41.657 46.24,2.72c1.581,-3.161 0.695,-12.587 21.76,-23.12c24.142,-12.071 12.052,-32.529 2.72,-35.36c-11.488,-3.486 -29.124,5.158 -53.04,-6.8c-20.562,-10.281 -18.092,-15.743 -58.48,-25.84c-1.823,-0.456 -34.731,-0.366 -47.6,-6.8c-5.218,-2.609 -17.458,-12.991 -27.2,-13.6c-22.692,-1.418 -20.831,-2.965 -29.92,-4.08Zm240.461,-1.696c-2.197,1.756 -4.156,3.809 -5.667,6.076c-9.851,14.777 -26.144,12.069 -31.195,37.323c-1.24,6.201 -0.686,10.201 1.537,14.624" style="fill:none;stroke:#9e3232;stroke-width:3.96px;"/></g><g id="top1" serif:id="top"><path id="color2" serif:id="color" d="M48.913,211.757c-3.33,12.604 -6.201,23.465 3.022,28.076c5.476,2.738 10.247,0.413 12.906,-1.517c-0.088,4.922 -1.742,12.49 -9.006,21.57c-18.195,22.743 -33.075,4.107 -35.094,-10.027c-2.941,-20.586 10.493,-35.621 18.94,-38.436c4.083,-1.361 7.062,-0.802 9.233,0.333Zm48.143,3.566c8.173,-3.846 8.257,-3.506 14.483,-7.242c5.254,-3.152 32.473,0.228 18.94,27.295c-8.003,16.005 -28.784,23.458 -31.752,23.953c-35.045,5.841 -22.537,-37.052 -1.671,-44.007Zm0.794,-158.252c0.816,-1.427 -0.229,-2.559 8.021,-6.685c3.565,-1.783 13.51,-3.772 14.706,-4.011c15.187,-3.037 30.647,3.807 33.869,10.25c12.442,24.885 -39.759,35.189 -55.705,32.532c-11.026,-1.838 -14.563,-12.693 -11.141,-17.826c0.232,-0.347 3.379,-10.825 10.25,-14.26Zm20.463,99.048c-7.326,8.695 -17.837,15.703 -19.585,16.869c-3.88,2.586 -22.956,8.854 -30.638,5.013c-22.947,-11.474 0.712,-44.046 18.383,-48.463c9.804,-3.501 9.901,-2.713 12.812,-2.228c11.6,1.933 21.001,2.829 24.53,7.414c0.473,0.615 0.841,1.297 1.094,2.056c2.108,6.323 -1.462,13.246 -6.596,19.34Zm0,0c5.134,-6.094 8.703,-13.017 6.596,-19.34c-0.253,-0.759 -0.621,-1.441 -1.094,-2.056c5.526,-9.964 11.205,-11.713 11.678,-11.87c8.729,-3.741 8.426,-4.277 13.305,-6.178c8.483,-3.303 17.566,0.841 17.889,1.164c12.687,12.687 -4.576,30.877 -6.128,33.98c-3.881,7.761 -26.093,17.87 -35.094,13.369c-1.03,-0.515 -5.819,-2.91 -7.153,-9.07Zm109.218,-88.798c1.662,-1.662 22.79,-2.42 35.651,4.011c0.542,0.271 6.239,3.119 6.685,3.565c8.102,8.102 11.395,6.174 13.815,18.271c2.064,10.32 5.36,13.802 1.783,17.38c-4.691,4.691 -8.905,4.232 -13.369,5.348c-11.544,2.886 -17.689,-3.074 -28.521,-6.685c-0.942,-0.314 -10.554,-3.917 -13.369,-5.793c-0.706,-0.471 -0.554,-0.5 -1.337,-0.891c-11.713,-5.857 -24.144,-23.094 -15.152,-32.086c1.992,-1.992 9.952,-4.407 13.815,-3.119Zm-7.3,91.94c1.56,5.608 1.371,14.083 -2.949,27.046c-2.137,6.412 -1.985,13.845 -1.273,17.645c-2.667,1.819 -18.756,12.226 -30.368,6.42c-8.996,-4.498 -7.857,-20.103 -4.456,-30.303c2.913,-8.739 1.35,-10.709 13.369,-22.728c5.091,-5.091 14.511,-3.695 17.38,-1.783c2.095,1.397 5.239,2.248 8.297,3.703Zm-189.463,156.332c12.927,-0 12.93,-0.498 13.926,0l1.671,1.671c5.865,5.865 3.611,23.973 1.114,28.967c-1.681,3.363 -12.679,27.672 -31.195,29.524c-14.402,1.44 -18.049,-18.939 -10.027,-32.309c6.902,-11.503 8.704,-23.901 24.51,-27.852Z" style="fill:#9e3232;stroke:#9e3232;stroke-width:4.17px;stroke-linecap:butt;stroke-miterlimit:2;"/><path id="line1" serif:id="line" d="M97.237,56.837l-0.229,-0.24c0.754,-1.569 0.299,-3.018 8.447,-7.051c3.363,-1.665 14.29,-4.201 18.953,-4.625c13.503,-1.227 27.541,4.63 30.902,11.648c12.693,26.504 -44.43,36.871 -58.714,32.717c-9.861,-2.867 -12.848,-13.175 -9.46,-18.231c0.28,-0.679 1.67,-4.839 4.287,-8.64c2.471,-3.588 4.758,-5.005 5.814,-5.578Zm0.704,0.74c-2.506,1.418 -6.201,4.218 -9.611,13.371c-0.482,1.292 -1.004,1.577 -1.309,3.398c-0.797,4.771 2.438,13.369 13.379,14.416c17.32,1.658 63.826,-8.455 53.727,-30.943c-0.422,-0.939 -1.624,-4.12 -8.423,-7.447c-5.627,-2.753 -15.086,-5.119 -24.952,-3.116c-11.097,2.253 -13.738,3.599 -14.836,4.159c-7.238,3.689 -6.467,4.671 -7.178,6.045c-0.178,0.344 -0.453,0.471 -0.456,0.474l-0.341,-0.358Zm128.923,9.077l-0.017,-0.017c0.519,-0.41 1.588,-1.252 8.147,-1.403c7.135,-0.164 19.56,0.793 28.579,5.308c0.373,0.187 5.612,2.821 6.635,3.529c0.747,0.517 1.223,1.506 5.953,5.145c4.463,3.433 6.525,4.954 8.31,13.789c2.463,12.195 6.359,14.794 -0.51,19.844c-3.907,2.872 -7.058,2.681 -11.967,3.821c-11.575,2.689 -17.143,-2.863 -28.636,-6.836c-0.797,-0.275 -11.399,-4.218 -13.933,-6.206c-1.049,-0.823 -2.682,-1.259 -6.12,-3.917c-10.334,-7.991 -17.772,-21.978 -9.961,-29.647c1.806,-1.773 8.769,-4.311 13.519,-3.41Zm0.515,1.136c-4.492,-1.269 -11.772,1.488 -13.293,3.026c-8.598,8.692 3.589,25.301 14.791,31.019c0.825,0.421 0.802,0.456 1.56,0.985c2.134,1.489 10.235,4.699 13.856,5.937c10.556,3.608 16.376,9.126 27.362,6.495c5.359,-1.283 8.966,-0.907 13.268,-5.245c3.132,-3.159 0.169,-6.031 -2.033,-16.678c-2.286,-11.052 -4.876,-9.713 -12.142,-16.395c-0.549,-0.505 -0.543,-0.511 -1.468,-1.405c-0.909,-0.569 -6.451,-3.579 -9.568,-4.747c-12.859,-4.817 -29.371,-3.894 -31.464,-2.79c-0.018,0.009 -0.033,0.037 -0.052,0.029c-0.059,0.054 -0.262,0.213 -0.514,0.253c-0.225,0.036 -0.221,-0.017 -0.449,-0.035l0.145,-0.45Zm0.774,0.176c-0.007,-0.012 -0.015,-0.022 -0.027,-0.027c-0.002,0.014 0.011,0.021 0.027,0.027Zm-162.357,170.741c-0.017,0.422 -0.056,1.156 -0.144,1.943c-1.342,12.025 -10.931,23.104 -16.786,27.193c-15.022,10.491 -27.297,-4.672 -28.938,-18.861c-2.342,-20.249 10.902,-35.631 20.361,-38.296c3.018,-0.85 5.768,-0.756 8.199,0.318c0.748,-2.755 1.504,-5.558 2.142,-8.353c1.097,-4.811 1.355,-7.428 1.373,-7.442l0.551,-0.428c0.082,0.218 0.346,0.334 0.428,0.553c0.048,0.129 -0.404,2.869 -0.445,3.117c-2.99,18.097 -12.449,35.73 0.607,41.054c5.169,2.108 10.097,-0.58 12.983,-3.431c0.698,-0.69 0.742,-0.64 9.283,-8.014c-7.318,8.467 -7.125,8.664 -9.347,10.439c-0.089,0.071 -0.178,0.141 -0.266,0.209Zm-17.567,-26.747c-1.128,-0.519 -4.278,-1.585 -8.763,0.101c-8.769,3.298 -21.087,18.663 -17.987,38.023c2.193,13.697 16.876,32.18 34.94,7.59c6.013,-8.186 7.13,-14.656 7.361,-17.62c-5.878,3.352 -10.709,1.175 -11.622,0.764c-10.307,-4.643 -7.375,-16.156 -3.93,-28.859Zm69.86,-54.734c-5.651,6.518 -13.232,12.404 -19.019,16.279c-3.905,2.615 -23.21,9.124 -31.291,5.124c-22.762,-11.264 -1.686,-42.983 16.744,-49.412c1.266,-0.442 1.286,-0.365 2.553,-0.815c9.059,-3.211 9.37,-2.471 12.36,-1.98c6.916,1.135 13.677,1.975 18.427,3.552c3.189,1.059 4.855,2.246 5.817,3.167c2.893,-4.895 7.245,-9.567 11.255,-10.994c2.707,-0.963 10.663,-4.996 10.916,-5.112c2.406,-1.104 8.024,-3.861 16.931,-1.466c2.259,0.607 4.107,1.418 4.416,1.714c4.315,4.141 4.712,9.171 4.783,10.059c0.87,11.006 -9.364,22.006 -10.947,24.961c-4.319,8.06 -26.646,17.912 -35.69,13.412c-5.022,-2.499 -6.649,-6.401 -7.255,-8.491Zm5.026,-21.963l-0.06,0.046c-2.653,-3.128 -7.063,-4.362 -17.646,-6.086c-5.36,-0.873 -5.362,-0.845 -7.714,-1.308c-1.61,-0.317 -3.07,-0.306 -10.043,2.126c-2.204,0.769 -3.104,0.795 -6.088,2.307c-15.737,7.978 -33.324,34.909 -13.162,45.025c7.353,3.689 26.097,-2.375 29.897,-4.846c7.792,-5.067 13.409,-10.388 14.48,-11.402c0.689,-0.653 2.554,-2.39 4.628,-4.787l-0.037,-0.009c0.005,-0.446 -0.079,-0.484 0.204,-0.831c1.295,-1.588 9.263,-10.55 6.435,-18.555c-0.297,-0.841 -0.669,-1.309 -0.895,-1.679Zm-4.145,21.458c0.461,1.682 1.956,5.686 6.833,8.044c8.627,4.171 30.169,-5.613 34.098,-13.065c1.896,-3.597 14.724,-17.265 9.419,-28.898c-1.058,-2.319 -2.776,-4.048 -3.11,-4.377c-2.853,-1.437 -10.362,-3.584 -16.928,-1.07c-4.454,1.705 -4.831,2.516 -12.659,5.934c-1.135,0.496 -3.103,1.019 -5.985,3.756c-2.939,2.791 -4.946,6.183 -5.758,7.618c0.568,0.874 1.623,2.951 1.558,6.363c-0.138,7.223 -6.153,14.214 -7.385,15.716l-0.084,-0.021Zm96.473,48.754c-0.472,0.299 -1.071,0.669 -1.746,1.063c-12.513,7.308 -23.086,7.967 -29.307,4.089c-8.18,-5.099 -7.584,-19.633 -3.876,-30.781c2.983,-8.971 1.597,-10.997 13.618,-22.934c5.303,-5.266 14.896,-3.829 17.944,-1.895c2.549,1.617 4.006,1.854 7.242,3.281c-1.272,-3.714 -3.688,-6.867 -7.787,-8.909c-1.09,-0.543 -3.045,-1.3 -3.062,-1.504c-0.02,-0.232 0.02,-0.466 0,-0.698c0.23,0.007 0.461,-0.014 0.691,-0.007c0.007,0 0.062,0.088 0.685,0.352c4.121,1.75 18.597,6.667 8.314,38.606c-0.072,0.222 -2.108,5.652 -1.719,13.612c0.166,3.384 0.71,5.453 1.03,5.946c0.007,0.01 0.024,0.018 0.021,0.03c-0.001,0.005 -0.005,0.011 -0.01,0.017c0.203,0.133 1.376,1.361 2.895,2.046c2.4,1.081 3.261,-0.326 3.358,-0.332c0.453,-0.031 0.91,0.034 1.363,0.003c-0.051,0.454 0.046,0.917 -0.005,1.371c-0,0.003 -0.293,0.288 -0.608,0.51c-3.601,2.529 -8.192,-2.049 -8.598,-2.748c-0.158,-0.272 -0.307,-0.65 -0.443,-1.118Zm4.262,-45.894c-0.337,-0.164 -1.11,-0.527 -3.075,-1.291c-3.14,-1.221 -3.661,-1.463 -5.112,-2.371c-2.612,-1.633 -11.622,-3.076 -16.537,1.848c-11.669,11.69 -10.379,14.054 -13.121,22.521c-3.492,10.782 -4.093,25.366 4.287,29.396c0.85,0.409 8.887,4.946 24.783,-3.761c1.911,-1.046 3.391,-2.002 4.092,-2.469c-0.63,-4.204 -0.519,-11.303 1.453,-17.189c2.486,-7.418 5.473,-18.257 3.231,-26.684Zm-122.859,55.292l-0.199,-0.424c8.476,-3.925 8.594,-3.703 14.424,-7.16c5.962,-3.535 34.114,0.529 20.121,28.446c-7.888,15.736 -28.356,23.654 -32.766,24.336c-28.211,4.366 -26.359,-22.73 -12.546,-37.757c5.163,-5.617 10.344,-7.246 10.966,-7.441Zm0.211,0.45l0.154,0.461c-0.225,0.083 -9.695,2.742 -16.242,15.508c-6.909,13.473 -5.472,31.32 17.642,27.364c2.294,-0.393 23.543,-7.61 31.46,-24.257c1.051,-2.21 8.851,-17.618 -4.094,-24.201c-5.345,-2.718 -11.889,-2.567 -13.967,-1.324c-6.027,3.606 -6.147,3.379 -14.542,7.323l-0.41,-0.875Zm-66.465,99.805l-0.058,-0.474c0.971,-0.12 0.978,0.11 12.228,-0.202c0.21,-0.006 1.949,-0.151 2.588,0.484c0.197,0.196 1.978,1.967 2.393,2.507c5.29,6.879 3,23.973 0.551,29.03c-1.275,2.634 -13.053,28.584 -32.29,30.021c-14.743,1.102 -18.406,-19.547 -10.452,-33.037c5.416,-9.186 7.07,-15.517 12.323,-21.129c4.789,-5.116 10.21,-6.536 12.716,-7.199Zm0.122,0.99c-7.378,2.029 -12.257,5.306 -17.072,14.259c-2.755,5.122 -3.299,7.243 -7.05,13.684c-7.363,12.644 -4.236,32.554 9.832,30.959c17.185,-1.949 27.743,-23.78 30.359,-29.272c1.434,-3.011 2.631,-10.32 2.378,-16.397c-0.398,-9.541 -3.524,-11.586 -4.983,-12.968c-0.381,-0.132 -0.807,-0.084 -2.665,-0.015c-5.002,0.186 -9.043,0.18 -10.743,0.191l-0.054,-0.44Z" style="fill:#9e3232;"/></g></g></g></svg>